<svg width="100" height="100" viewBox="0 0 100 100" xmlns="http://www.w3.org/2000/svg">
  <!-- 미니 책꽂이: 이성 스타일, 지식 -->
  <rect width="100" height="100" fill="transparent"/>
  <!-- 책꽂이 프레임 -->
  <rect x="15" y="10" width="70" height="85" fill="#8b4513"/>
  <rect x="18" y="13" width="64" height="79" fill="#a0522d"/>
  <!-- 선반 -->
  <rect x="18" y="35" width="64" height="4" fill="#8b4513"/>
  <rect x="18" y="60" width="64" height="4" fill="#8b4513"/>
  <!-- 책들 - 상단 -->
  <rect x="22" y="15" width="8" height="18" fill="#e74c3c"/>
  <rect x="31" y="17" width="6" height="16" fill="#3498db"/>
  <rect x="38" y="14" width="10" height="19" fill="#27ae60"/>
  <rect x="49" y="16" width="7" height="17" fill="#f1c40f"/>
  <rect x="57" y="15" width="9" height="18" fill="#9b59b6"/>
  <rect x="67" y="17" width="6" height="16" fill="#e67e22"/>
  <!-- 책들 - 중간 -->
  <rect x="22" y="40" width="10" height="18" fill="#1abc9c"/>
  <rect x="33" y="42" width="8" height="16" fill="#e74c3c"/>
  <rect x="42" y="39" width="7" height="19" fill="#34495e"/>
  <rect x="50" y="41" width="11" height="17" fill="#f39c12"/>
  <rect x="62" y="40" width="8" height="18" fill="#8e44ad"/>
  <!-- 책들 - 하단 -->
  <rect x="22" y="65" width="9" height="25" fill="#2980b9"/>
  <rect x="32" y="67" width="7" height="23" fill="#c0392b"/>
  <rect x="40" y="64" width="12" height="26" fill="#16a085"/>
  <rect x="53" y="66" width="8" height="24" fill="#d35400"/>
  <rect x="62" y="65" width="10" height="25" fill="#2c3e50"/>
</svg>
