<svg width="100" height="100" viewBox="0 0 100 100" xmlns="http://www.w3.org/2000/svg">
  <!-- 명함 홀더: 넓은 관계 스타일 -->
  <rect width="100" height="100" fill="transparent"/>
  <!-- 명함 홀더 본체 -->
  <rect x="15" y="40" width="70" height="50" rx="3" fill="#2c3e50"/>
  <rect x="18" y="43" width="64" height="44" rx="2" fill="#34495e"/>
  <!-- 명함들 (뒤에서 앞으로) -->
  <rect x="22" y="30" width="45" height="28" fill="#ecf0f1" transform="rotate(-8 44 44)"/>
  <rect x="30" y="25" width="45" height="28" fill="#fff" transform="rotate(-3 52 39)"/>
  <rect x="35" y="22" width="45" height="28" fill="#fef9e7" transform="rotate(2 57 36)"/>
  <!-- 메인 명함 -->
  <rect x="25" y="48" width="50" height="30" fill="#fff"/>
  <rect x="28" y="51" width="20" height="3" fill="#3498db"/>
  <rect x="28" y="56" width="35" height="2" fill="#7f8c8d"/>
  <rect x="28" y="60" width="30" height="2" fill="#bdc3c7"/>
  <rect x="28" y="64" width="25" height="2" fill="#bdc3c7"/>
  <circle cx="65" cy="60" r="6" fill="#e74c3c"/>
  <!-- 명함 위 텍스트 힌트 -->
  <rect x="38" y="26" width="15" height="2" fill="#3498db"/>
  <rect x="38" y="30" width="25" height="2" fill="#7f8c8d"/>
  <rect x="38" y="34" width="20" height="2" fill="#bdc3c7"/>
  <!-- 더 많은 명함 표시 -->
  <rect x="60" y="35" width="25" height="15" fill="#f5f5f5" transform="rotate(5 72 42)"/>
  <rect x="62" y="38" width="10" height="2" fill="#27ae60"/>
  <rect x="62" y="42" width="18" height="1" fill="#bdc3c7"/>
</svg>
