<svg width="100" height="100" viewBox="0 0 100 100" xmlns="http://www.w3.org/2000/svg">
  <!-- 갤러리 월: 맥시멀 스타일 -->
  <rect width="100" height="100" fill="transparent"/>
  <!-- 큰 액자 1 -->
  <rect x="5" y="10" width="35" height="45" fill="#8b4513"/>
  <rect x="8" y="13" width="29" height="39" fill="#fff"/>
  <circle cx="22" cy="30" r="10" fill="#ff6b6b"/>
  <rect x="15" y="42" width="15" height="6" fill="#4ecdc4"/>
  <!-- 중간 액자 2 -->
  <rect x="45" y="5" width="25" height="30" fill="#2c3e50"/>
  <rect x="48" y="8" width="19" height="24" fill="#fff"/>
  <rect x="51" y="12" width="13" height="8" fill="#f1c40f"/>
  <rect x="51" y="22" width="13" height="6" fill="#9b59b6"/>
  <!-- 작은 액자 3 -->
  <rect x="75" y="10" width="20" height="20" fill="#d35400"/>
  <rect x="77" y="12" width="16" height="16" fill="#fff"/>
  <circle cx="85" cy="20" r="5" fill="#3498db"/>
  <!-- 세로 액자 4 -->
  <rect x="45" y="40" width="20" height="35" fill="#1abc9c"/>
  <rect x="47" y="42" width="16" height="31" fill="#fff"/>
  <ellipse cx="55" cy="55" rx="5" ry="8" fill="#e74c3c"/>
  <rect x="50" y="65" width="10" height="4" fill="#2c3e50"/>
  <!-- 작은 액자 5 -->
  <rect x="70" y="35" width="25" height="20" fill="#8e44ad"/>
  <rect x="72" y="37" width="21" height="16" fill="#fff"/>
  <polygon points="82,40 75,50 89,50" fill="#27ae60"/>
  <!-- 원형 액자 6 -->
  <circle cx="82" cy="70" r="12" fill="#34495e"/>
  <circle cx="82" cy="70" r="10" fill="#fff"/>
  <circle cx="82" cy="70" r="6" fill="#ff6b6b"/>
  <!-- 작은 사각 액자 7 -->
  <rect x="5" y="60" width="18" height="18" fill="#c0392b"/>
  <rect x="7" y="62" width="14" height="14" fill="#fff"/>
  <rect x="9" y="64" width="5" height="10" fill="#3498db"/>
  <rect x="15" y="64" width="5" height="10" fill="#f1c40f"/>
  <!-- 가로 액자 8 -->
  <rect x="5" y="82" width="55" height="15" fill="#16a085"/>
  <rect x="7" y="84" width="51" height="11" fill="#fff"/>
  <rect x="10" y="86" width="15" height="7" fill="#e67e22"/>
  <rect x="28" y="86" width="15" height="7" fill="#9b59b6"/>
  <rect x="46" y="86" width="10" height="7" fill="#1abc9c"/>
</svg>
