<svg width="100" height="100" viewBox="0 0 100 100" xmlns="http://www.w3.org/2000/svg">
  <!-- 헤드폰: 개인 스타일, 집중 -->
  <rect width="100" height="100" fill="transparent"/>
  <!-- 헤드밴드 -->
  <path d="M20 55 Q20 20 50 15 Q80 20 80 55" stroke="#2c3e50" stroke-width="8" fill="none"/>
  <path d="M23 55 Q23 23 50 18 Q77 23 77 55" stroke="#34495e" stroke-width="4" fill="none"/>
  <!-- 패딩 -->
  <rect x="35" y="10" width="30" height="8" rx="4" fill="#7f8c8d"/>
  <!-- 왼쪽 이어컵 -->
  <ellipse cx="20" cy="60" rx="15" ry="20" fill="#2c3e50"/>
  <ellipse cx="20" cy="60" rx="12" ry="17" fill="#34495e"/>
  <ellipse cx="20" cy="60" rx="8" ry="12" fill="#1a252f"/>
  <!-- 왼쪽 쿠션 -->
  <ellipse cx="20" cy="60" rx="10" ry="14" fill="#5c4033" opacity="0.7"/>
  <!-- 오른쪽 이어컵 -->
  <ellipse cx="80" cy="60" rx="15" ry="20" fill="#2c3e50"/>
  <ellipse cx="80" cy="60" rx="12" ry="17" fill="#34495e"/>
  <ellipse cx="80" cy="60" rx="8" ry="12" fill="#1a252f"/>
  <!-- 오른쪽 쿠션 -->
  <ellipse cx="80" cy="60" rx="10" ry="14" fill="#5c4033" opacity="0.7"/>
  <!-- LED 표시 -->
  <circle cx="12" cy="50" r="2" fill="#3498db"/>
</svg>
