<svg width="100" height="100" viewBox="0 0 100 100" xmlns="http://www.w3.org/2000/svg">
  <!-- 편지 세트: 깊은 관계 스타일 -->
  <rect width="100" height="100" fill="transparent"/>
  <!-- 편지지 스택 -->
  <rect x="30" y="55" width="50" height="35" fill="#fff" transform="rotate(-5 55 72)"/>
  <rect x="28" y="53" width="50" height="35" fill="#fef9e7" transform="rotate(-3 53 70)"/>
  <rect x="26" y="51" width="50" height="35" fill="#fff5eb"/>
  <!-- 편지지 라인 -->
  <line x1="30" y1="60" x2="70" y2="60" stroke="#d5d8dc" stroke-width="1"/>
  <line x1="30" y1="68" x2="70" y2="68" stroke="#d5d8dc" stroke-width="1"/>
  <line x1="30" y1="76" x2="65" y2="76" stroke="#d5d8dc" stroke-width="1"/>
  <!-- 봉투 -->
  <rect x="10" y="15" width="55" height="35" fill="#fadbd8"/>
  <polygon points="10,15 37,35 65,15" fill="#f1948a"/>
  <polygon points="10,50 37,35 65,50" fill="#e6b0aa" opacity="0.7"/>
  <!-- 봉투 씰 -->
  <circle cx="37" cy="35" r="6" fill="#e74c3c"/>
  <path d="M37 32 C37 30 34 30 34 32 C34 30 31 30 31 32 C31 35 34 38 34 38 C34 38 37 35 37 32" fill="#fff" transform="translate(3,0)"/>
  <!-- 펜 -->
  <rect x="72" y="30" width="5" height="50" fill="#2c3e50" transform="rotate(15 74 55)"/>
  <polygon points="72,80 74.5,90 77,80" fill="#f39c12" transform="rotate(15 74 85)"/>
  <rect x="72" y="28" width="5" height="5" fill="#c0392b" transform="rotate(15 74 30)"/>
  <!-- 하트 스티커 -->
  <path d="M85 20 C85 17 82 17 82 20 C82 17 79 17 79 20 C79 24 82 27 82 27 C82 27 85 24 85 20" fill="#ff6b6b"/>
  <!-- 작은 하트들 -->
  <path d="M20 75 C20 74 19 74 19 75 C19 74 18 74 18 75 C18 76 19 77 19 77 C19 77 20 76 20 75" fill="#e74c3c"/>
  <path d="M75 65 C75 64 74 64 74 65 C74 64 73 64 73 65 C73 66 74 67 74 67 C74 67 75 66 75 65" fill="#e74c3c"/>
</svg>
