<svg width="100" height="100" viewBox="0 0 100 100" xmlns="http://www.w3.org/2000/svg">
  <!-- 파티 소품들: 넓은 관계 스타일 -->
  <rect width="100" height="100" fill="transparent"/>
  <!-- 파티 모자 -->
  <polygon points="25,70 40,20 55,70" fill="#e74c3c"/>
  <polygon points="28,68 40,25 52,68" fill="#c0392b"/>
  <circle cx="40" cy="20" r="5" fill="#f1c40f"/>
  <ellipse cx="40" cy="70" rx="18" ry="5" fill="#f39c12"/>
  <!-- 풍선 -->
  <ellipse cx="75" cy="35" rx="15" ry="20" fill="#9b59b6"/>
  <ellipse cx="72" cy="30" rx="4" ry="3" fill="#8e44ad" opacity="0.5"/>
  <path d="M75 55 L75 75" stroke="#7f8c8d" stroke-width="1"/>
  <path d="M75 55 Q73 58 75 60" stroke="#9b59b6" stroke-width="2"/>
  <!-- 색종이 -->
  <rect x="10" y="15" width="8" height="8" fill="#ff6b6b" transform="rotate(15 14 19)"/>
  <rect x="50" y="10" width="6" height="6" fill="#4ecdc4" transform="rotate(-20 53 13)"/>
  <rect x="85" y="20" width="7" height="7" fill="#ffe66d" transform="rotate(30 88 23)"/>
  <rect x="60" y="60" width="5" height="5" fill="#ff6b6b" transform="rotate(-10 62 62)"/>
  <rect x="15" y="50" width="6" height="6" fill="#4ecdc4" transform="rotate(25 18 53)"/>
  <!-- 파티 호루라기 -->
  <rect x="55" y="75" width="30" height="8" rx="2" fill="#3498db"/>
  <circle cx="55" cy="79" r="6" fill="#2980b9"/>
  <rect x="83" y="73" width="5" height="12" fill="#f1c40f"/>
  <!-- 리본 -->
  <path d="M10 85 Q25 75 40 85 Q55 95 70 85" stroke="#e74c3c" stroke-width="3" fill="none"/>
  <path d="M20 80 Q35 90 50 80" stroke="#f1c40f" stroke-width="2" fill="none"/>
  <!-- 별 장식 -->
  <polygon points="90,50 92,56 98,56 93,60 95,66 90,62 85,66 87,60 82,56 88,56" fill="#f1c40f"/>
  <polygon points="8,35 9,38 12,38 10,40 11,43 8,41 5,43 6,40 4,38 7,38" fill="#ff6b6b"/>
</svg>
