<svg width="100" height="100" viewBox="0 0 100 100" xmlns="http://www.w3.org/2000/svg">
  <!-- 시즌 완료 마스코트: 특별 보상 -->
  <rect width="100" height="100" fill="transparent"/>
  <!-- 후광 효과 -->
  <circle cx="50" cy="45" r="40" fill="#f1c40f" opacity="0.2"/>
  <circle cx="50" cy="45" r="35" fill="#f1c40f" opacity="0.3"/>
  <!-- 왕관 -->
  <polygon points="30,22 35,12 40,20 50,8 60,20 65,12 70,22" fill="#f1c40f"/>
  <polygon points="32,22 35,15 40,21 50,12 60,21 65,15 68,22" fill="#f39c12"/>
  <circle cx="35" cy="12" r="3" fill="#e74c3c"/>
  <circle cx="50" cy="8" r="4" fill="#e74c3c"/>
  <circle cx="65" cy="12" r="3" fill="#e74c3c"/>
  <!-- 몸통 -->
  <ellipse cx="50" cy="65" rx="28" ry="30" fill="#9b59b6"/>
  <ellipse cx="50" cy="65" rx="25" ry="27" fill="#8e44ad"/>
  <!-- 머리 -->
  <circle cx="50" cy="40" r="22" fill="#9b59b6"/>
  <circle cx="50" cy="40" r="19" fill="#8e44ad"/>
  <!-- 눈 (반짝반짝) -->
  <circle cx="42" cy="38" r="5" fill="#fff"/>
  <circle cx="58" cy="38" r="5" fill="#fff"/>
  <circle cx="43" cy="37" r="3" fill="#2c3e50"/>
  <circle cx="59" cy="37" r="3" fill="#2c3e50"/>
  <circle cx="44" cy="36" r="1" fill="#fff"/>
  <circle cx="60" cy="36" r="1" fill="#fff"/>
  <!-- 볼터치 -->
  <ellipse cx="35" cy="45" rx="4" ry="2" fill="#ff6b6b" opacity="0.5"/>
  <ellipse cx="65" cy="45" rx="4" ry="2" fill="#ff6b6b" opacity="0.5"/>
  <!-- 입 (큰 미소) -->
  <path d="M40 48 Q50 58 60 48" stroke="#fff" stroke-width="3" fill="none"/>
  <!-- 팔 (축하 포즈) -->
  <ellipse cx="22" cy="55" rx="8" ry="12" fill="#9b59b6" transform="rotate(-30 22 55)"/>
  <ellipse cx="78" cy="55" rx="8" ry="12" fill="#9b59b6" transform="rotate(30 78 55)"/>
  <!-- 다리 -->
  <ellipse cx="38" cy="90" rx="10" ry="8" fill="#9b59b6"/>
  <ellipse cx="62" cy="90" rx="10" ry="8" fill="#9b59b6"/>
  <!-- 배지 (가슴에) -->
  <circle cx="50" cy="70" r="10" fill="#f1c40f"/>
  <polygon points="50,62 52,68 58,68 53,72 55,78 50,74 45,78 47,72 42,68 48,68" fill="#fff"/>
  <!-- 별 이펙트 -->
  <polygon points="15,25 16,28 19,28 17,30 18,33 15,31 12,33 13,30 11,28 14,28" fill="#f1c40f"/>
  <polygon points="85,30 86,33 89,33 87,35 88,38 85,36 82,38 83,35 81,33 84,33" fill="#f1c40f"/>
  <polygon points="20,70 21,72 23,72 22,73 22,75 20,74 18,75 18,73 17,72 19,72" fill="#f1c40f"/>
  <polygon points="80,65 81,67 83,67 82,68 82,70 80,69 78,70 78,68 77,67 79,67" fill="#f1c40f"/>
</svg>
