<svg width="100" height="100" viewBox="0 0 100 100" xmlns="http://www.w3.org/2000/svg">
  <!-- 스노클링 장비: 모험 스타일 -->
  <rect width="100" height="100" fill="transparent"/>
  <!-- 마스크 -->
  <ellipse cx="50" cy="45" rx="35" ry="20" fill="#2c3e50"/>
  <ellipse cx="50" cy="45" rx="32" ry="17" fill="#3498db"/>
  <!-- 렌즈 -->
  <ellipse cx="35" cy="45" rx="12" ry="10" fill="#1a252f"/>
  <ellipse cx="35" cy="45" rx="10" ry="8" fill="#87ceeb"/>
  <ellipse cx="65" cy="45" rx="12" ry="10" fill="#1a252f"/>
  <ellipse cx="65" cy="45" rx="10" ry="8" fill="#87ceeb"/>
  <!-- 렌즈 반사 -->
  <ellipse cx="32" cy="42" rx="3" ry="2" fill="#fff" opacity="0.5"/>
  <ellipse cx="62" cy="42" rx="3" ry="2" fill="#fff" opacity="0.5"/>
  <!-- 코 부분 -->
  <rect x="45" y="50" width="10" height="8" fill="#3498db"/>
  <!-- 스트랩 -->
  <rect x="5" y="42" width="12" height="6" fill="#2c3e50"/>
  <rect x="83" y="42" width="12" height="6" fill="#2c3e50"/>
  <!-- 스노클 튜브 -->
  <rect x="82" y="25" width="8" height="50" rx="4" fill="#f1c40f"/>
  <rect x="84" y="27" width="4" height="46" rx="2" fill="#f39c12"/>
  <!-- 스노클 상단 -->
  <ellipse cx="86" cy="22" rx="6" ry="4" fill="#f1c40f"/>
  <!-- 오리발 -->
  <path d="M20 75 L10 95 L30 95 L35 75 Z" fill="#27ae60"/>
  <path d="M22 77 L14 93 L28 93 L33 77 Z" fill="#2ecc71"/>
  <path d="M50 75 L40 95 L60 95 L65 75 Z" fill="#27ae60"/>
  <path d="M52 77 L44 93 L58 93 L63 77 Z" fill="#2ecc71"/>
  <!-- 물방울 장식 -->
  <circle cx="75" cy="15" r="3" fill="#87ceeb"/>
  <circle cx="15" cy="20" r="2" fill="#87ceeb"/>
  <circle cx="25" cy="12" r="2" fill="#87ceeb"/>
</svg>
