<svg width="100" height="100" viewBox="0 0 100 100" xmlns="http://www.w3.org/2000/svg">
  <!-- 빈티지 소품들: 맥시멀 스타일 -->
  <rect width="100" height="100" fill="transparent"/>
  <!-- 빈티지 라디오 -->
  <rect x="5" y="55" width="35" height="30" rx="5" fill="#8b4513"/>
  <rect x="8" y="58" width="29" height="24" rx="3" fill="#d4a574"/>
  <circle cx="22" cy="70" r="8" fill="#2c3e50"/>
  <circle cx="22" cy="70" r="6" fill="#5c4033"/>
  <rect x="32" y="62" width="3" height="15" fill="#f1c40f"/>
  <!-- 빈티지 카메라 -->
  <rect x="45" y="60" width="25" height="20" rx="3" fill="#2c3e50"/>
  <circle cx="55" cy="70" r="7" fill="#34495e"/>
  <circle cx="55" cy="70" r="5" fill="#1a252f"/>
  <rect x="63" y="63" width="5" height="5" fill="#bdc3c7"/>
  <!-- 빈티지 시계 -->
  <circle cx="82" cy="70" r="12" fill="#d4a574"/>
  <circle cx="82" cy="70" r="10" fill="#f5deb3"/>
  <line x1="82" y1="70" x2="82" y2="63" stroke="#2c3e50" stroke-width="2"/>
  <line x1="82" y1="70" x2="88" y2="70" stroke="#2c3e50" stroke-width="1"/>
  <!-- 빈티지 책 -->
  <rect x="5" y="25" width="15" height="25" fill="#8e44ad"/>
  <rect x="22" y="28" width="12" height="22" fill="#c0392b"/>
  <rect x="36" y="30" width="10" height="20" fill="#16a085"/>
  <!-- 빈티지 화병 -->
  <ellipse cx="60" cy="45" rx="8" ry="5" fill="#3498db"/>
  <rect x="55" y="25" width="10" height="20" fill="#3498db"/>
  <ellipse cx="60" cy="25" rx="6" ry="3" fill="#2980b9"/>
  <!-- 꽃 -->
  <circle cx="55" cy="18" r="4" fill="#ff6b6b"/>
  <circle cx="65" cy="15" r="4" fill="#f1c40f"/>
  <circle cx="60" cy="12" r="4" fill="#ff6b6b"/>
  <!-- 빈티지 램프 -->
  <rect x="78" y="35" width="12" height="20" fill="#f39c12"/>
  <ellipse cx="84" cy="35" rx="8" ry="4" fill="#f1c40f"/>
  <rect x="82" y="55" width="4" height="5" fill="#8b4513"/>
</svg>
