<svg width="100" height="100" viewBox="0 0 100 100" xmlns="http://www.w3.org/2000/svg">
  <!-- 베스트프렌드 액자: 깊은 관계 스타일 -->
  <rect width="100" height="100" fill="transparent"/>
  <!-- 액자 프레임 -->
  <rect x="10" y="10" width="80" height="80" rx="5" fill="#f1c40f"/>
  <rect x="14" y="14" width="72" height="72" rx="3" fill="#f39c12"/>
  <!-- 사진 영역 -->
  <rect x="18" y="18" width="64" height="64" fill="#ffeaa7"/>
  <!-- 배경 -->
  <rect x="18" y="60" width="64" height="22" fill="#87ceeb"/>
  <!-- 친구 1 -->
  <circle cx="35" cy="45" r="10" fill="#f5deb3"/>
  <rect x="28" y="55" width="14" height="18" fill="#9b59b6"/>
  <circle cx="32" cy="43" r="2" fill="#2c3e50"/>
  <circle cx="38" cy="43" r="2" fill="#2c3e50"/>
  <path d="M32 48 Q35 51 38 48" stroke="#2c3e50" stroke-width="1" fill="none"/>
  <!-- 친구 2 -->
  <circle cx="65" cy="45" r="10" fill="#f5deb3"/>
  <rect x="58" y="55" width="14" height="18" fill="#e74c3c"/>
  <circle cx="62" cy="43" r="2" fill="#2c3e50"/>
  <circle cx="68" cy="43" r="2" fill="#2c3e50"/>
  <path d="M62 48 Q65 51 68 48" stroke="#2c3e50" stroke-width="1" fill="none"/>
  <!-- 하트 손가락 (가운데) -->
  <path d="M50 55 L45 65 L50 60 L55 65 Z" fill="#e74c3c"/>
  <!-- BFF 텍스트 -->
  <rect x="35" y="25" width="30" height="10" rx="2" fill="#e74c3c"/>
  <text x="50" y="33" text-anchor="middle" fill="#fff" font-size="8" font-weight="bold">BFF</text>
  <!-- 별 장식 -->
  <polygon points="25,22 26,25 29,25 27,27 28,30 25,28 22,30 23,27 21,25 24,25" fill="#f1c40f"/>
  <polygon points="75,22 76,25 79,25 77,27 78,30 75,28 72,30 73,27 71,25 74,25" fill="#f1c40f"/>
</svg>
