<svg width="100" height="100" viewBox="0 0 100 100" xmlns="http://www.w3.org/2000/svg">
  <!-- 보드게임 세트: 협력 스타일 -->
  <rect width="100" height="100" fill="transparent"/>
  <!-- 보드게임 박스 -->
  <rect x="10" y="50" width="50" height="40" rx="3" fill="#e74c3c"/>
  <rect x="12" y="52" width="46" height="36" rx="2" fill="#c0392b"/>
  <rect x="20" y="60" width="30" height="8" fill="#f5f5f5"/>
  <rect x="25" y="72" width="20" height="4" fill="#f5f5f5"/>
  <!-- 게임 보드 (펼쳐진) -->
  <rect x="35" y="15" width="55" height="45" fill="#f1c40f"/>
  <rect x="37" y="17" width="51" height="41" fill="#f39c12"/>
  <!-- 보드 그리드 -->
  <line x1="45" y1="17" x2="45" y2="58" stroke="#e67e22" stroke-width="1"/>
  <line x1="55" y1="17" x2="55" y2="58" stroke="#e67e22" stroke-width="1"/>
  <line x1="65" y1="17" x2="65" y2="58" stroke="#e67e22" stroke-width="1"/>
  <line x1="75" y1="17" x2="75" y2="58" stroke="#e67e22" stroke-width="1"/>
  <line x1="37" y1="27" x2="88" y2="27" stroke="#e67e22" stroke-width="1"/>
  <line x1="37" y1="37" x2="88" y2="37" stroke="#e67e22" stroke-width="1"/>
  <line x1="37" y1="47" x2="88" y2="47" stroke="#e67e22" stroke-width="1"/>
  <!-- 게임 말들 -->
  <circle cx="50" cy="32" r="5" fill="#e74c3c"/>
  <circle cx="60" cy="42" r="5" fill="#3498db"/>
  <circle cx="70" cy="22" r="5" fill="#27ae60"/>
  <circle cx="80" cy="52" r="5" fill="#9b59b6"/>
  <!-- 주사위 -->
  <rect x="12" y="20" width="18" height="18" rx="3" fill="#fff"/>
  <circle cx="17" cy="25" r="2" fill="#2c3e50"/>
  <circle cx="25" cy="25" r="2" fill="#2c3e50"/>
  <circle cx="21" cy="29" r="2" fill="#2c3e50"/>
  <circle cx="17" cy="33" r="2" fill="#2c3e50"/>
  <circle cx="25" cy="33" r="2" fill="#2c3e50"/>
  <!-- 카드들 -->
  <rect x="65" y="65" width="25" height="30" rx="2" fill="#fff"/>
  <rect x="67" y="67" width="21" height="26" fill="#3498db"/>
  <rect x="70" y="60" width="25" height="30" rx="2" fill="#fff" transform="rotate(10 82 75)"/>
</svg>
