<svg width="100" height="100" viewBox="0 0 100 100" xmlns="http://www.w3.org/2000/svg">
  <!-- 달력: 루틴 스타일, 정돈된 느낌 -->
  <rect width="100" height="100" fill="transparent"/>
  <!-- 달력 본체 -->
  <rect x="10" y="15" width="80" height="75" rx="3" fill="#fff"/>
  <rect x="10" y="15" width="80" height="20" fill="#e74c3c"/>
  <!-- 고리 -->
  <rect x="25" y="10" width="6" height="12" rx="2" fill="#7f8c8d"/>
  <rect x="45" y="10" width="6" height="12" rx="2" fill="#7f8c8d"/>
  <rect x="65" y="10" width="6" height="12" rx="2" fill="#7f8c8d"/>
  <!-- 월 표시 -->
  <text x="50" y="30" text-anchor="middle" fill="#fff" font-size="10" font-weight="bold">JANUARY</text>
  <!-- 날짜 그리드 -->
  <g fill="#2c3e50" font-size="7">
    <text x="20" y="48">1</text><text x="32" y="48">2</text><text x="44" y="48">3</text>
    <text x="56" y="48">4</text><text x="68" y="48">5</text><text x="80" y="48">6</text>
    <text x="20" y="60">7</text><text x="32" y="60">8</text><text x="44" y="60">9</text>
    <text x="56" y="60">10</text><text x="68" y="60">11</text><text x="80" y="60">12</text>
    <text x="20" y="72">13</text><text x="32" y="72">14</text><text x="44" y="72">15</text>
    <text x="56" y="72">16</text><text x="68" y="72">17</text><text x="80" y="72">18</text>
  </g>
  <!-- 체크 표시 -->
  <circle cx="20" cy="45" r="5" fill="#27ae60" opacity="0.5"/>
  <circle cx="32" cy="45" r="5" fill="#27ae60" opacity="0.5"/>
</svg>
