<svg width="100" height="100" viewBox="0 0 100 100" xmlns="http://www.w3.org/2000/svg">
  <!-- 안락한 담요: 안정 스타일 -->
  <rect width="100" height="100" fill="transparent"/>
  <!-- 담요 본체 -->
  <path d="M15 30 Q10 50 15 70 Q20 85 50 90 Q80 85 85 70 Q90 50 85 30 Q80 20 50 15 Q20 20 15 30" fill="#e8c9a0"/>
  <path d="M18 32 Q13 50 18 68 Q23 82 50 87 Q77 82 82 68 Q87 50 82 32 Q77 23 50 18 Q23 23 18 32" fill="#f5deb3"/>
  <!-- 담요 패턴 (체크) -->
  <line x1="30" y1="20" x2="25" y2="85" stroke="#d4a574" stroke-width="3"/>
  <line x1="50" y1="15" x2="50" y2="90" stroke="#d4a574" stroke-width="3"/>
  <line x1="70" y1="20" x2="75" y2="85" stroke="#d4a574" stroke-width="3"/>
  <path d="M15 40 Q50 35 85 40" stroke="#d4a574" stroke-width="3" fill="none"/>
  <path d="M15 60 Q50 55 85 60" stroke="#d4a574" stroke-width="3" fill="none"/>
  <!-- 프린지 -->
  <g fill="#d4a574">
    <rect x="20" y="88" width="3" height="8"/>
    <rect x="28" y="88" width="3" height="8"/>
    <rect x="36" y="88" width="3" height="8"/>
    <rect x="44" y="88" width="3" height="8"/>
    <rect x="52" y="88" width="3" height="8"/>
    <rect x="60" y="88" width="3" height="8"/>
    <rect x="68" y="88" width="3" height="8"/>
    <rect x="76" y="88" width="3" height="8"/>
  </g>
  <!-- 접힌 부분 -->
  <path d="M70 25 Q75 35 70 45 L85 30 Z" fill="#e8c9a0" opacity="0.7"/>
</svg>
