<svg width="100" height="100" viewBox="0 0 100 100" xmlns="http://www.w3.org/2000/svg">
  <!-- 등산 장비: 모험 스타일 -->
  <rect width="100" height="100" fill="transparent"/>
  <!-- 등산 배낭 -->
  <rect x="25" y="20" width="35" height="50" rx="5" fill="#e67e22"/>
  <rect x="28" y="23" width="29" height="44" rx="4" fill="#d35400"/>
  <!-- 배낭 주머니 -->
  <rect x="30" y="45" width="25" height="18" rx="2" fill="#c0392b"/>
  <rect x="32" y="47" width="21" height="5" fill="#e74c3c"/>
  <!-- 배낭 끈 -->
  <rect x="23" y="30" width="4" height="35" fill="#7f8c8d"/>
  <rect x="58" y="30" width="4" height="35" fill="#7f8c8d"/>
  <!-- 등산화 -->
  <path d="M65 70 L85 70 L90 80 L88 85 L62 85 L60 80 Z" fill="#5c4033"/>
  <rect x="65" y="72" width="20" height="3" fill="#8b4513"/>
  <rect x="67" y="76" width="16" height="2" fill="#8b4513"/>
  <!-- 등산 스틱 -->
  <rect x="8" y="15" width="4" height="70" fill="#7f8c8d"/>
  <rect x="6" y="12" width="8" height="8" rx="2" fill="#2c3e50"/>
  <circle cx="10" cy="85" r="4" fill="#2c3e50"/>
  <!-- 물병 -->
  <rect x="50" y="75" width="10" height="20" rx="3" fill="#3498db"/>
  <rect x="52" y="72" width="6" height="5" fill="#2980b9"/>
  <!-- 나침반 -->
  <circle cx="18" cy="75" r="10" fill="#f5f5f5"/>
  <circle cx="18" cy="75" r="8" fill="#fff"/>
  <polygon points="18,68 16,78 18,75 20,78" fill="#e74c3c"/>
  <polygon points="18,82 16,72 18,75 20,72" fill="#2c3e50"/>
</svg>
