<svg width="100" height="100" viewBox="0 0 100 100" xmlns="http://www.w3.org/2000/svg">
  <!-- 정글 화분: 맥시멀 스타일 -->
  <rect width="100" height="100" fill="transparent"/>
  <!-- 화분 -->
  <path d="M25 70 L30 95 L70 95 L75 70 Z" fill="#d35400"/>
  <rect x="22" y="65" width="56" height="8" rx="2" fill="#e67e22"/>
  <!-- 흙 -->
  <ellipse cx="50" cy="68" rx="25" ry="5" fill="#5c4033"/>
  <!-- 대형 잎들 -->
  <ellipse cx="30" cy="45" rx="15" ry="25" fill="#27ae60" transform="rotate(-30 30 45)"/>
  <ellipse cx="70" cy="45" rx="15" ry="25" fill="#27ae60" transform="rotate(30 70 45)"/>
  <ellipse cx="50" cy="35" rx="12" ry="30" fill="#2ecc71"/>
  <ellipse cx="40" cy="50" rx="10" ry="20" fill="#1abc9c" transform="rotate(-15 40 50)"/>
  <ellipse cx="60" cy="50" rx="10" ry="20" fill="#1abc9c" transform="rotate(15 60 50)"/>
  <!-- 작은 잎들 -->
  <ellipse cx="35" cy="30" rx="6" ry="12" fill="#16a085" transform="rotate(-45 35 30)"/>
  <ellipse cx="65" cy="30" rx="6" ry="12" fill="#16a085" transform="rotate(45 65 30)"/>
  <ellipse cx="50" cy="15" rx="5" ry="12" fill="#27ae60"/>
  <!-- 잎 디테일 (맥락) -->
  <line x1="50" y1="20" x2="50" y2="55" stroke="#1e8449" stroke-width="2"/>
  <line x1="35" y1="35" x2="25" y2="55" stroke="#1e8449" stroke-width="1"/>
  <line x1="65" y1="35" x2="75" y2="55" stroke="#1e8449" stroke-width="1"/>
</svg>
