<svg width="100" height="100" viewBox="0 0 100 100" xmlns="http://www.w3.org/2000/svg">
  <!-- 노트북: 이성 스타일, 분석적 -->
  <rect width="100" height="100" fill="transparent"/>
  <!-- 화면 -->
  <rect x="15" y="15" width="70" height="45" rx="3" fill="#7f8c8d"/>
  <rect x="18" y="18" width="64" height="39" rx="2" fill="#2c3e50"/>
  <rect x="20" y="20" width="60" height="35" fill="#3498db"/>
  <!-- 화면 내용 - 코드/데이터 -->
  <rect x="23" y="23" width="30" height="3" fill="#2ecc71"/>
  <rect x="23" y="28" width="45" height="3" fill="#ecf0f1"/>
  <rect x="23" y="33" width="35" height="3" fill="#ecf0f1"/>
  <rect x="23" y="38" width="50" height="3" fill="#f1c40f"/>
  <rect x="23" y="43" width="25" height="3" fill="#ecf0f1"/>
  <rect x="23" y="48" width="40" height="3" fill="#e74c3c"/>
  <!-- 키보드 베이스 -->
  <path d="M10 60 L90 60 L85 85 L15 85 Z" fill="#95a5a6"/>
  <path d="M15 62 L85 62 L82 83 L18 83 Z" fill="#7f8c8d"/>
  <!-- 키보드 키들 -->
  <g fill="#bdc3c7">
    <rect x="20" y="65" width="6" height="4" rx="1"/>
    <rect x="28" y="65" width="6" height="4" rx="1"/>
    <rect x="36" y="65" width="6" height="4" rx="1"/>
    <rect x="44" y="65" width="6" height="4" rx="1"/>
    <rect x="52" y="65" width="6" height="4" rx="1"/>
    <rect x="60" y="65" width="6" height="4" rx="1"/>
    <rect x="68" y="65" width="6" height="4" rx="1"/>
    <rect x="20" y="71" width="6" height="4" rx="1"/>
    <rect x="28" y="71" width="6" height="4" rx="1"/>
    <rect x="36" y="71" width="6" height="4" rx="1"/>
    <rect x="44" y="71" width="6" height="4" rx="1"/>
    <rect x="52" y="71" width="6" height="4" rx="1"/>
    <rect x="60" y="71" width="6" height="4" rx="1"/>
    <rect x="68" y="71" width="6" height="4" rx="1"/>
  </g>
  <!-- 트랙패드 -->
  <rect x="40" y="77" width="20" height="5" rx="1" fill="#bdc3c7"/>
</svg>
