<svg width="100" height="100" viewBox="0 0 100 100" xmlns="http://www.w3.org/2000/svg">
  <!-- 개인 작업 보드: 개인 스타일 -->
  <rect width="100" height="100" fill="transparent"/>
  <!-- 보드 프레임 -->
  <rect x="5" y="5" width="90" height="90" fill="#8b4513"/>
  <!-- 코르크 보드 -->
  <rect x="8" y="8" width="84" height="84" fill="#d2691e"/>
  <rect x="10" y="10" width="80" height="80" fill="#deb887"/>
  <!-- 메모 1 -->
  <rect x="15" y="15" width="25" height="25" fill="#fffacd" transform="rotate(-5 27 27)"/>
  <line x1="18" y1="22" x2="35" y2="22" stroke="#2c3e50" stroke-width="1"/>
  <line x1="18" y1="28" x2="32" y2="28" stroke="#2c3e50" stroke-width="1"/>
  <line x1="18" y1="34" x2="30" y2="34" stroke="#2c3e50" stroke-width="1"/>
  <!-- 핀 1 -->
  <circle cx="27" cy="12" r="4" fill="#e74c3c"/>
  <!-- 메모 2 -->
  <rect x="50" y="12" width="30" height="20" fill="#87ceeb" transform="rotate(3 65 22)"/>
  <line x1="53" y1="18" x2="75" y2="18" stroke="#2c3e50" stroke-width="1"/>
  <line x1="53" y1="24" x2="70" y2="24" stroke="#2c3e50" stroke-width="1"/>
  <!-- 핀 2 -->
  <circle cx="65" cy="10" r="4" fill="#27ae60"/>
  <!-- 사진 -->
  <rect x="60" y="40" width="25" height="20" fill="#fff"/>
  <rect x="62" y="42" width="21" height="14" fill="#3498db"/>
  <circle cx="72" cy="49" r="4" fill="#f1c40f"/>
  <!-- 핀 3 -->
  <circle cx="72" cy="38" r="4" fill="#f39c12"/>
  <!-- 할 일 목록 -->
  <rect x="15" y="50" width="35" height="35" fill="#fff"/>
  <rect x="18" y="55" width="4" height="4" fill="none" stroke="#27ae60" stroke-width="1"/>
  <line x1="25" y1="57" x2="45" y2="57" stroke="#2c3e50" stroke-width="1"/>
  <rect x="18" y="63" width="4" height="4" fill="#27ae60"/>
  <line x1="25" y1="65" x2="42" y2="65" stroke="#2c3e50" stroke-width="1" stroke-dasharray="2"/>
  <rect x="18" y="71" width="4" height="4" fill="none" stroke="#27ae60" stroke-width="1"/>
  <line x1="25" y1="73" x2="40" y2="73" stroke="#2c3e50" stroke-width="1"/>
  <!-- 핀 4 -->
  <circle cx="32" cy="48" r="4" fill="#9b59b6"/>
  <!-- 영감 이미지 -->
  <rect x="55" y="65" width="30" height="22" fill="#ffe4e1"/>
  <circle cx="62" cy="76" r="5" fill="#ff6b6b"/>
  <rect x="70" y="70" width="12" height="8" fill="#4ecdc4"/>
</svg>
