<svg width="100" height="100" viewBox="0 0 100 100" xmlns="http://www.w3.org/2000/svg">
  <!-- 배경: 방 기본 배경 -->
  <rect width="100" height="100" fill="#f5f0e6"/>
  <!-- 벽 -->
  <rect width="100" height="60" fill="#e8dcc8"/>
  <!-- 바닥 -->
  <rect y="60" width="100" height="40" fill="#c9a86c"/>
  <!-- 바닥 패턴 -->
  <rect x="0" y="60" width="20" height="8" fill="#b89858"/>
  <rect x="40" y="60" width="20" height="8" fill="#b89858"/>
  <rect x="80" y="60" width="20" height="8" fill="#b89858"/>
  <rect x="20" y="68" width="20" height="8" fill="#b89858"/>
  <rect x="60" y="68" width="20" height="8" fill="#b89858"/>
  <rect x="0" y="76" width="20" height="8" fill="#b89858"/>
  <rect x="40" y="76" width="20" height="8" fill="#b89858"/>
  <rect x="80" y="76" width="20" height="8" fill="#b89858"/>
  <rect x="20" y="84" width="20" height="8" fill="#b89858"/>
  <rect x="60" y="84" width="20" height="8" fill="#b89858"/>
  <rect x="0" y="92" width="20" height="8" fill="#b89858"/>
  <rect x="40" y="92" width="20" height="8" fill="#b89858"/>
  <rect x="80" y="92" width="20" height="8" fill="#b89858"/>
  <!-- 창문 -->
  <rect x="35" y="10" width="30" height="35" fill="#87ceeb" stroke="#8b7355" stroke-width="3"/>
  <line x1="50" y1="10" x2="50" y2="45" stroke="#8b7355" stroke-width="2"/>
  <line x1="35" y1="27" x2="65" y2="27" stroke="#8b7355" stroke-width="2"/>
</svg>
