<svg width="100" height="100" viewBox="0 0 100 100" xmlns="http://www.w3.org/2000/svg">
  <!-- 커뮤니티 테이블: 협력 스타일 -->
  <rect width="100" height="100" fill="transparent"/>
  <!-- 테이블 다리 -->
  <rect x="45" y="55" width="10" height="40" fill="#8b4513"/>
  <!-- 테이블 베이스 -->
  <ellipse cx="50" cy="92" rx="25" ry="6" fill="#5c4033"/>
  <!-- 테이블 상판 -->
  <ellipse cx="50" cy="50" rx="42" ry="15" fill="#d4a574"/>
  <ellipse cx="50" cy="48" rx="40" ry="13" fill="#deb887"/>
  <!-- 테이블 위 소품들 -->
  <ellipse cx="35" cy="45" rx="8" ry="3" fill="#3498db"/>
  <ellipse cx="65" cy="45" rx="8" ry="3" fill="#e74c3c"/>
  <ellipse cx="50" cy="42" rx="10" ry="4" fill="#27ae60"/>
  <!-- 컵들 -->
  <rect x="30" y="38" width="6" height="8" fill="#fff"/>
  <rect x="64" y="38" width="6" height="8" fill="#fff"/>
  <rect x="45" y="36" width="6" height="8" fill="#fff"/>
  <!-- 의자 힌트 (주변에) -->
  <ellipse cx="15" cy="70" rx="8" ry="4" fill="#9b59b6" opacity="0.5"/>
  <ellipse cx="85" cy="70" rx="8" ry="4" fill="#9b59b6" opacity="0.5"/>
  <ellipse cx="50" cy="85" rx="8" ry="4" fill="#9b59b6" opacity="0.5"/>
  <ellipse cx="50" cy="20" rx="8" ry="4" fill="#9b59b6" opacity="0.5"/>
</svg>
