<svg width="100" height="100" viewBox="0 0 100 100" xmlns="http://www.w3.org/2000/svg">
  <!-- 2주 완료 배너: 특별 보상 -->
  <rect width="100" height="100" fill="transparent"/>
  <!-- 배너 폴 -->
  <rect x="12" y="5" width="4" height="90" fill="#8b4513"/>
  <circle cx="14" cy="5" r="5" fill="#d4a574"/>
  <!-- 배너 본체 -->
  <path d="M18 15 L85 15 L80 50 L85 85 L18 85 Z" fill="#9b59b6"/>
  <path d="M20 18 L82 18 L78 50 L82 82 L20 82 Z" fill="#8e44ad"/>
  <!-- 배너 텍스트 -->
  <text x="50" y="42" text-anchor="middle" fill="#fff" font-size="10" font-weight="bold">HALFWAY</text>
  <text x="50" y="58" text-anchor="middle" fill="#f1c40f" font-size="14" font-weight="bold">2 WEEKS</text>
  <text x="50" y="72" text-anchor="middle" fill="#fff" font-size="8">COMPLETE!</text>
  <!-- 별 장식 -->
  <polygon points="30,25 31,28 34,28 32,30 33,33 30,31 27,33 28,30 26,28 29,28" fill="#f1c40f"/>
  <polygon points="70,25 71,28 74,28 72,30 73,33 70,31 67,33 68,30 66,28 69,28" fill="#f1c40f"/>
  <polygon points="50,75 51,77 53,77 52,78 52,80 50,79 48,80 48,78 47,77 49,77" fill="#f1c40f"/>
  <!-- 리본 장식 -->
  <polygon points="18,15 25,20 18,25" fill="#c0392b"/>
  <polygon points="18,75 25,80 18,85" fill="#c0392b"/>
  <!-- 반짝임 -->
  <circle cx="40" cy="35" r="2" fill="#fff" opacity="0.5"/>
  <circle cx="65" cy="65" r="2" fill="#fff" opacity="0.5"/>
</svg>
