<svg width="100" height="100" viewBox="0 0 100 100" xmlns="http://www.w3.org/2000/svg">
  <!-- 세계 지도: 즉흥 스타일, 탐험적 -->
  <rect width="100" height="100" fill="transparent"/>
  <!-- 지도 배경 -->
  <rect x="5" y="10" width="90" height="80" fill="#f5e6d3" rx="2"/>
  <rect x="7" y="12" width="86" height="76" fill="#faf0e6"/>
  <!-- 바다 -->
  <rect x="10" y="15" width="80" height="70" fill="#b3d9ff"/>
  <!-- 대륙들 (간소화) -->
  <path d="M20 35 L35 30 L45 35 L40 50 L25 55 L15 45 Z" fill="#8fbc8f"/>
  <path d="M50 25 L70 20 L85 30 L80 45 L65 50 L55 40 Z" fill="#8fbc8f"/>
  <path d="M60 55 L75 50 L85 60 L80 75 L65 80 L55 70 Z" fill="#8fbc8f"/>
  <path d="M15 60 L30 55 L35 70 L25 78 L12 70 Z" fill="#8fbc8f"/>
  <!-- 핀 마커들 -->
  <circle cx="30" cy="40" r="3" fill="#e74c3c"/>
  <circle cx="70" cy="35" r="3" fill="#e74c3c"/>
  <circle cx="25" cy="65" r="3" fill="#e74c3c"/>
  <!-- 연결선 -->
  <line x1="30" y1="40" x2="70" y2="35" stroke="#e74c3c" stroke-width="1" stroke-dasharray="3"/>
  <line x1="70" y1="35" x2="25" y2="65" stroke="#e74c3c" stroke-width="1" stroke-dasharray="3"/>
</svg>
